# xmcd
#
# Track frame offsets: 
#        300
#        16172
#        41658
#        68293
#        102922
#        122950
#        147568
#        170350
#        185323
#        201742
#        219058
#        244959
#        267386
#
# Disc length: 4109 seconds
#
# Revision: 4
# Processed by: cddbd v1.5.2PL0 Copyright (c) Steve Scherf et al.
# Submitted via: ExactAudioCopy v1.0b1
#
DISCID=bf10090d
DTITLE=Blues Company - So What ?
DYEAR=1987
DGENRE=Blues Rock
TTITLE0=What's Wrong
TTITLE1=Cold Blue Moon
TTITLE2=Stay With Me
TTITLE3=Downhome Blues
TTITLE4=Mean Woman Blues
TTITLE5=Rattlesnake Blues
TTITLE6=Pension Blues
TTITLE7=Look Here Baby
TTITLE8=Good Times Boogie
TTITLE9=Teeny Weeny Bit
TTITLE10=Drinkin' Blues
TTITLE11=Mr. TNT
TTITLE12=Black Nite
EXTD=
EXTT0=
EXTT1=
EXTT2=
EXTT3=
EXTT4=
EXTT5=
EXTT6=
EXTT7=
EXTT8=
EXTT9=
EXTT10=
EXTT11=
EXTT12=
PLAYORDER=
